<svg xmlns="http://www.w3.org/2000/svg" width="95.124" height="58.304" viewBox="0 0 95.124 58.304"><g transform="translate(-642.89 -50)"><path d="M862.871,1.82V7.39h8.782L861.89,30.351h17.539V24.784h-9.047l9.76-22.964Z" transform="translate(-219 48.693)"/><path d="M1206.1,194.84v19.425a4.09,4.09,0,0,1-8.177,0V194.84h-5.572v19.425a9.656,9.656,0,1,0,19.313,0l0-19.425Z" transform="translate(-527.109 -144.327)"/><path d="M1141.417,1.82l-7.52,10.551V1.82h-5.567V30.351h5.567V18.275l8.606,12.075h6.715l-10.71-15.029,9.624-13.5Z" transform="translate(-411.204 48.693)"/><path d="M1297.243,214.763a9.231,9.231,0,1,1,0-13.931l3.508-4.321a14.795,14.795,0,1,0,0,22.568Z" transform="translate(-587.733 -143)"/><path d="M1277.965,334.638a.412.412,0,0,1-.4-.4.405.405,0,1,1,.4.4Zm.279,5.723h-.557v-4.873h.557Z" transform="translate(-588.582 -244.57)"/><path d="M1288.888,344.509h-.557v-3.271c0-.836-.189-1.209-.942-1.209a3.6,3.6,0,0,0-1.672.529v3.951h-.557v-4.873h.557v.451l.03.02a3.424,3.424,0,0,1,1.772-.557c.6,0,1,.17,1.159.49a1.826,1.826,0,0,1,.2.961Z" transform="translate(-594.06 -248.718)"/><path d="M1305.761,338.514h-.02a2.391,2.391,0,0,1-1.549.571c-1.181,0-1.772-.8-1.772-2.391s.591-2.622,1.911-2.622a2.717,2.717,0,0,1,1.421.379V331.93h.557v7.094h-.557Zm0-3.591a2.851,2.851,0,0,0-1.351-.39q-1.4,0-1.393,2.159c0,1.44.471,1.931,1.34,1.931a1.927,1.927,0,0,0,.741-.178,2.229,2.229,0,0,0,.671-.412Z" transform="translate(-606.512 -243.221)"/><path d="M1324.185,341.909v.3h-3.343q-.017,1.95,1.5,1.95a3.688,3.688,0,0,0,1.552-.371l.151.382a3.648,3.648,0,0,1-1.722.44c-1.672,0-2.062-1.131-2.062-2.483a3.508,3.508,0,0,1,.212-1.24,1.794,1.794,0,0,1,1.831-1.3C1323.564,339.579,1324.185,340.359,1324.185,341.909Zm-3.324-.109h2.786q0-1.8-1.321-1.8C1321.452,340,1320.962,340.6,1320.861,341.8Z" transform="translate(-619.38 -248.739)"/><path d="M1338.678,340.221a2.418,2.418,0,0,1,1.53-.571c1.181,0,1.772.8,1.772,2.41s-.591,2.594-1.911,2.594a2.614,2.614,0,0,1-1.421-.371v2.4h-.557V339.72h.532v.482Zm-.031,3.591a2.735,2.735,0,0,0,1.351.4c.942,0,1.41-.722,1.41-2.173,0-1.393-.479-1.92-1.348-1.92a2.019,2.019,0,0,0-.752.178,2.3,2.3,0,0,0-.66.412Z" transform="translate(-632.243 -248.79)"/><path d="M1359.492,341.908v.3h-3.343q-.017,1.95,1.5,1.95a3.676,3.676,0,0,0,1.549-.371l.151.382a3.638,3.638,0,0,1-1.722.44c-1.672,0-2.059-1.131-2.059-2.483a3.49,3.49,0,0,1,.209-1.24,1.794,1.794,0,0,1,1.83-1.3C1358.871,339.579,1359.492,340.359,1359.492,341.908Zm-3.321-.109h2.786q0-1.8-1.321-1.8C1356.759,340,1356.268,340.6,1356.171,341.8Z" transform="translate(-644.852 -248.739)"/><path d="M1377.128,344.509h-.557v-3.271c0-.836-.189-1.209-.942-1.209a3.585,3.585,0,0,0-1.672.529v3.951h-.558v-4.873h.558v.451l.031.02a3.422,3.422,0,0,1,1.772-.557c.6,0,1,.17,1.159.49a1.833,1.833,0,0,1,.2.961Z" transform="translate(-657.715 -248.718)"/><path d="M1394,338.514h-.019a2.394,2.394,0,0,1-1.552.571c-1.179,0-1.769-.8-1.769-2.391s.591-2.622,1.911-2.622a2.716,2.716,0,0,1,1.421.379V331.93h.557v7.094h-.557Zm0-3.591a2.851,2.851,0,0,0-1.351-.39q-1.4,0-1.393,2.159c0,1.44.471,1.931,1.34,1.931a1.926,1.926,0,0,0,.741-.178,2.229,2.229,0,0,0,.672-.412Z" transform="translate(-670.166 -243.221)"/><path d="M1412.451,341.908v.3h-3.329q-.017,1.95,1.5,1.95a3.689,3.689,0,0,0,1.552-.371l.151.382a3.648,3.648,0,0,1-1.722.44c-1.672,0-2.062-1.131-2.062-2.483a3.51,3.51,0,0,1,.212-1.24,1.794,1.794,0,0,1,1.831-1.3C1411.833,339.579,1412.451,340.359,1412.451,341.908Zm-3.321-.109h2.786q0-1.8-1.324-1.8C1409.721,340,1409.225,340.6,1409.13,341.8Z" transform="translate(-683.064 -248.739)"/><path d="M1430.075,344.509h-.557v-3.271c0-.836-.19-1.209-.939-1.209a3.578,3.578,0,0,0-1.672.529v3.951h-.557v-4.873h.557v.451l.028.02a3.422,3.422,0,0,1,1.772-.557c.6,0,1,.17,1.162.49a1.856,1.856,0,0,1,.2.961Z" transform="translate(-695.912 -248.718)"/><path d="M1443.67,336.011l.36-.061v1.089h1.44v.432h-1.449v3.212c0,.529.17.811.73.811a3.766,3.766,0,0,0,.931-.17l.089.379a2.662,2.662,0,0,1-1.131.251c-.78,0-1.17-.371-1.17-1.1v-3.382h-.7v-.309l.719-.17Z" transform="translate(-707.757 -246.121)"/><path d="M1280.114,378.315v2.9h.668l.031.332a1.625,1.625,0,0,1-.733.159c-.368,0-.518-.17-.51-.6h-.019a2.7,2.7,0,0,1-1.691.621,1.264,1.264,0,0,1-1.41-1.34c0-.872.63-1.363,1.591-1.432l1.53-.078v-.415c0-.931-.279-1.271-1.114-1.271a4.834,4.834,0,0,0-1.521.279l-.139-.39a4.4,4.4,0,0,1,1.781-.371C1279.593,376.724,1280.114,377.195,1280.114,378.315Zm-.557.95-1.393.081c-.73.031-1.131.379-1.131.97,0,.652.34.972,1.023.972a2.451,2.451,0,0,0,1.5-.691Z" transform="translate(-587.777 -275.525)"/><path d="M1295.735,379.66a1.393,1.393,0,0,1-.7-1.31,1.505,1.505,0,0,1,.541-1.271,2.032,2.032,0,0,1,1.29-.432,3.1,3.1,0,0,1,.891.111h1.5v.4h-.836l-.019.031a1.41,1.41,0,0,1,.44,1.131c0,1.031-.78,1.652-1.972,1.652h-.557c-.557,0-.88.089-.88.418,0,.262.2.39.591.39h1.34c1.17,0,1.761.513,1.761,1.421,0,.972-.9,1.583-2.262,1.583s-2-.471-2-1.421a1.446,1.446,0,0,1,.641-1.22.621.621,0,0,1-.61-.671q0-.69.835-.78Zm.329,1.552a1.212,1.212,0,0,0-.669,1.039c0,.73.51,1.1,1.541,1.1.969,0,1.61-.449,1.61-1.14s-.432-1-1.292-1Zm1.881-3.753a1.257,1.257,0,0,0-1.02-.379,1.193,1.193,0,0,0-1.332,1.251,1.165,1.165,0,0,0,1.212,1.22c.888,0,1.471-.432,1.471-1.232a1.255,1.255,0,0,0-.34-.861Z" transform="translate(-601.058 -275.48)"/><path d="M1317.542,378.985v.279H1314.2q0,1.95,1.5,1.95a3.69,3.69,0,0,0,1.552-.371l.15.382a3.655,3.655,0,0,1-1.722.44c-1.672,0-2.062-1.131-2.062-2.483a3.5,3.5,0,0,1,.209-1.24,1.8,1.8,0,0,1,1.833-1.3C1316.923,376.653,1317.542,377.434,1317.542,378.985Zm-3.321-.111h2.786q0-1.8-1.32-1.8T1314.221,378.874Z" transform="translate(-614.59 -275.474)"/><path d="M1335.185,381.634h-.557v-3.271c0-.836-.189-1.209-.939-1.209a3.6,3.6,0,0,0-1.672.529v3.951h-.557v-4.865h.557v.449l.031.02a3.421,3.421,0,0,1,1.772-.557c.6,0,1,.17,1.162.49a1.864,1.864,0,0,1,.2.961Z" transform="translate(-627.461 -275.503)"/><path d="M1350.8,381.209a3.95,3.95,0,0,0,1.449-.329l.151.39a3.309,3.309,0,0,1-1.63.4c-1.371,0-2.062-.811-2.062-2.432a3.43,3.43,0,0,1,.239-1.34,1.853,1.853,0,0,1,1.892-1.262,3.394,3.394,0,0,1,1.371.251l-.151.421a3.541,3.541,0,0,0-1.181-.2c-1.039,0-1.588.8-1.588,2.092C1349.29,380.541,1349.789,381.209,1350.8,381.209Z" transform="translate(-639.902 -275.469)"/><path d="M1365.053,381.482c0-.031.039-.111.07-.231.078-.251.228-.761.348-1.131l1-3.14h.557l-1.931,5.893c-.24.761-.591,1.151-1.232,1.151a4.589,4.589,0,0,1-1.009-.15l.089-.421a4.915,4.915,0,0,0,.8.111c.432,0,.632-.12.836-.722l.331-1.011h-.279c-.111-.348-.39-1.209-.836-2.561s-.7-2.12-.75-2.29h.557l.5,1.56c.279.869.451,1.41.5,1.6l.421,1.343Z" transform="translate(-650.112 -275.72)"/></g></svg>